<?xml version="1.0" encoding="UTF-8"?>
<svg id="Layer_1" xmlns="http://www.w3.org/2000/svg" version="1.1" viewBox="0 0 1000 1000">
  <!-- Generator: Adobe Illustrator 29.5.1, SVG Export Plug-In . SVG Version: 2.1.0 Build 141)  -->
  <defs>
    <style>
      .st0 {
        fill: #fff;
      }
    </style>
  </defs>
  <polygon class="st0" points="757 407.28 757 442.54 848.22 442.54 757 455.58 757 497.96 827.62 497.96 757 508.06 757 553.38 809.89 553.38 809.89 614.74 757 614.74 757 650 898.03 650 898.03 614.74 845.14 614.74 845.14 553.38 898.03 553.38 898.03 518.13 786.2 518.13 898.03 502.14 898.03 462.7 806.81 462.7 898.03 449.66 898.03 407.28 757 407.28"/>
  <polygon class="st0" points="695.01 418.43 681.64 418.43 681.64 350 646.39 350 646.39 553.38 681.64 553.38 681.64 453.68 695.01 453.68 695.01 553.38 730.27 553.38 730.27 350 695.01 350 695.01 418.43"/>
  <polygon class="st0" points="532.99 418.43 532.99 551.84 532.99 553.38 633.02 553.38 633.02 518.13 568.24 518.13 568.24 453.68 633.02 453.68 633.02 418.43 532.99 418.43"/>
  <rect class="st0" x="244.3" y="350" width="35.26" height="127.16"/>
  <path class="st0" d="M217.56,418.59c0-31.92-25.87-57.79-57.79-57.79s-57.79,25.88-57.79,57.79,25.87,57.79,57.79,57.79,57.79-25.88,57.79-57.79ZM143.48,418.59c0-9,7.29-16.29,16.29-16.29s16.29,7.29,16.29,16.29-7.29,16.29-16.29,16.29-16.29-7.29-16.29-16.29h0Z"/>
  <polygon class="st0" points="138.53 539.15 229.75 539.15 138.53 552.2 138.53 594.58 209.14 594.58 138.53 604.67 138.53 650 279.55 650 279.55 614.74 167.73 614.74 279.55 598.75 279.55 559.32 188.33 559.32 279.55 546.27 279.55 503.9 138.53 503.9 138.53 539.15"/>
  <polygon class="st0" points="470.99 369.98 435.74 369.98 435.74 543.06 328.93 572.36 328.93 614.74 506.25 614.74 506.25 579.49 372.45 579.49 470.99 553.38 470.99 452.98 506.25 452.98 506.25 418.02 470.99 418.02 470.99 369.98"/>
  <path class="st0" d="M364.17,534.17c26.2,0,47.44-21.24,47.44-47.44,0-6.56-1.33-12.81-3.74-18.5h14.18v-35.26h-40.25v-14.56h-35.26v14.56h-40.25v35.26h14.18c-2.41,5.68-3.74,11.94-3.74,18.5,0,26.2,21.24,47.44,47.44,47.44ZM364.17,473.37c7.38,0,13.37,5.99,13.37,13.37s-5.99,13.37-13.37,13.37-13.37-5.99-13.37-13.37,5.99-13.37,13.37-13.37Z"/>
</svg>